<?xml version="1.0" encoding="UTF-8"?>
<svg width="16" height="16" version="1.1" viewBox="0 0 16 16" xmlns="http://www.w3.org/2000/svg" xmlns:cc="http://creativecommons.org/ns#" xmlns:dc="http://purl.org/dc/elements/1.1/" xmlns:rdf="http://www.w3.org/1999/02/22-rdf-syntax-ns#">
 <metadata>
  <rdf:RDF>
   <cc:Work rdf:about="">
    <dc:format>image/svg+xml</dc:format>
    <dc:type rdf:resource="http://purl.org/dc/dcmitype/StillImage"/>
    <dc:title/>
   </cc:Work>
  </rdf:RDF>
 </metadata>
 <defs>
  <style id="current-color-scheme" type="text/css">.ColorScheme-Text { color:#565656; } .ColorScheme-Highlight { color:#5294e2; }</style>
 </defs>
 <path d="m8 1.3333c-3.7119 0-5.0618 2.7022-5.0618 5.8838 0 2.8531-3.3739 4.9495-0.33691 4.9495h10.798c3.0367 0-0.33692-2.0965-0.33692-4.9495 0-3.1816-1.3501-5.8838-5.0618-5.8838zm0 1.0954c2.9608 0 4.0381 2.1561 4.0381 4.694 0 2.2759 2.6908 3.9486 0.26856 3.9486h-8.6133c-2.4226 0 0.26855-1.6727 0.26855-3.9486 0-2.5379 1.0772-4.694 4.0381-4.694zm-2.5 10.571c0.36934 0.96525 1.3433 1.6667 2.5 1.6667 1.1568 0 2.1308-0.70167 2.5-1.6667z" fill="currentColor" stroke-width=".83333"/>
</svg>
