<?xml version="1.0" encoding="UTF-8"?>
<svg width="24" height="24" version="1.1" viewBox="0 0 24 24" xmlns="http://www.w3.org/2000/svg" xmlns:cc="http://creativecommons.org/ns#" xmlns:dc="http://purl.org/dc/elements/1.1/" xmlns:rdf="http://www.w3.org/1999/02/22-rdf-syntax-ns#">
 <metadata>
  <rdf:RDF>
   <cc:Work rdf:about="">
    <dc:format>image/svg+xml</dc:format>
    <dc:type rdf:resource="http://purl.org/dc/dcmitype/StillImage"/>
    <dc:title/>
   </cc:Work>
  </rdf:RDF>
 </metadata>
 <defs>
  <style id="current-color-scheme" type="text/css">.ColorScheme-Text { color:#565656; } .ColorScheme-Highlight { color:#5294e2; }</style>
 </defs>
 <path d="m9 18c0.44321 1.1583 1.6119 2 3 2s2.557-0.842 3-2h-1.043c-0.41004 0.53712-1.1269 0.90234-1.957 0.90234-0.83098 0-1.5491-0.36424-1.959-0.90234h-1.041z" fill="currentColor"/>
 <path d="m12 4c-4.4543 0-6.0742 3.2426-6.0742 7.0605 0 3.4237-4.0487 5.9395-0.4043 5.9395h12.957c3.644 0-0.4043-2.5158-0.4043-5.9395 0-3.8179-1.6201-7.0605-6.0742-7.0605zm0 1.2578c3.5917 0 4.8984 2.6147 4.8984 5.6934 0 2.7608 3.2646 4.791 0.32617 4.791h-10.449c-2.9388 0 0.32617-2.0302 0.32617-4.791 0-3.0787 1.3066-5.6934 4.8984-5.6934z" fill="currentColor"/>
</svg>
